<svg xmlns="http://www.w3.org/2000/svg" viewBox="0 0 100 100" width="100" height="100">
  <rect width="100" height="100" fill="#0f0b08"/>
  <circle cx="50" cy="50" r="44" fill="#1a1410"/>
  <circle cx="50" cy="50" r="44" fill="none" stroke="#3d2e22" stroke-width="1"/>
  <path d="M50 50 C50 41,44 36,37 36 C30 36,24 41,24 50 C24 59,30 64,37 64 C44 64,50 59,50 50 C50 41,56 36,63 36 C70 36,76 41,76 50 C76 59,70 64,63 64 C56 64,50 59,50 50 Z" fill="none" stroke="#c8410a" stroke-width="2.5"/>
  <path d="M43 39 C39 36,27 37,27 50 C27 63,39 64,43 61" fill="none" stroke="#f0ebe3" stroke-width="2" stroke-linecap="butt" opacity="0.9"/>
  <line x1="51" y1="38" x2="51" y2="62" stroke="#e8632e" stroke-width="2" stroke-linecap="square" opacity="0.7"/>
  <circle cx="50" cy="50" r="44" fill="none" stroke="#c8410a" stroke-width="1.5" stroke-dasharray="8 276" stroke-dashoffset="0"/>
</svg>
